#N canvas 437 84 911 726 12;
#X obj 31 280 comport 2 9600;
#X msg 32 138 devices;
#X msg 64 196 close 2;
#X msg 54 164 open 2;
#X obj 32 370 select 13 10;
#X obj 33 408 bng 19 250 50 0 empty empty empty 0 -10 0 12 #fcfcfc #000000 #000000;
#X obj 111 418 list prepend;
#X obj 217 420 t l;
#X obj 33 487 list append;
#X obj 143 536 list tosymbol;
#X symbolatom 140 584 10 0 0 0 - - - 0;
#X obj 34 559 fudiparse;
#X obj 34 605 list trim;
#X obj 32 747 bng 19 250 50 0 empty empty empty 0 -10 0 12 #fcfcfc #000000 #000000;
#X obj 32 680 route 0;
#X obj 107 681 route 1;
#X obj 108 745 bng 19 250 50 0 empty empty empty 0 -10 0 12 #fcfcfc #000000 #000000;
#X msg 165 195 print L;
#X msg 278 195 print H;
#X text 17 10 Tecnologias de Interface \, Winter 2023 Universidade de Coimbra Communication between Pure Data and Arduino (over serial \, using comport) Sérgio M. Rebelo \, Ana Rodrigues and Tiago Cruz;
#X connect 0 0 4 0;
#X connect 1 0 0 0;
#X connect 2 0 0 0;
#X connect 3 0 0 0;
#X connect 4 0 5 0;
#X connect 4 2 6 0;
#X connect 5 0 8 0;
#X connect 5 0 6 1;
#X connect 6 0 7 0;
#X connect 6 0 8 1;
#X connect 7 0 6 1;
#X connect 8 0 9 0;
#X connect 8 0 11 0;
#X connect 9 0 10 0;
#X connect 11 0 12 0;
#X connect 12 0 14 0;
#X connect 12 0 15 0;
#X connect 14 0 13 0;
#X connect 15 0 16 0;
#X connect 17 0 0 0;
#X connect 18 0 0 0;
